<svg width="13" height="14" viewBox="0 0 13 14" fill="none" xmlns="http://www.w3.org/2000/svg">
<path d="M12.1444 0.843035V12.2943L10.7183 11.218H0.855638V0.843035H12.1444ZM13 0H0V12.0582H10.4274L13 14V0Z" fill="black"/>
<path d="M4.47214 2.88599H3.6165V9.14693H4.47214V2.88599Z" fill="black"/>
<path d="M9.38065 10.0715L8.77029 8.48936C9.03839 8.17182 9.20096 7.76435 9.20096 7.32035V4.70975C9.20096 3.70373 8.371 2.88599 7.34993 2.88599C6.32887 2.88599 5.4989 3.70373 5.4989 4.70975V7.32035C5.4989 8.32638 6.32887 9.14412 7.34993 9.14412C7.59807 9.14412 7.83765 9.09354 8.05441 9.00642L8.48793 10.0686H9.38065V10.0715ZM6.35454 7.32035V4.70975C6.35454 4.1674 6.80233 3.72902 7.34993 3.72902C7.89754 3.72902 8.34533 4.17021 8.34533 4.70975V7.32035C8.34533 7.86271 7.89754 8.30108 7.34993 8.30108C6.80233 8.30108 6.35454 7.8599 6.35454 7.32035Z" fill="black"/>
</svg>
