<svg width="22" height="22" viewBox="0 0 22 22" fill="none" xmlns="http://www.w3.org/2000/svg">
<path d="M18.5757 19.9243C18.8101 20.1586 19.1899 20.1586 19.4243 19.9243C19.6586 19.6899 19.6586 19.3101 19.4243 19.0757L19 19.5L18.5757 19.9243ZM13 13.5L12.5757 13.9243L18.5757 19.9243L19 19.5L19.4243 19.0757L13.4243 13.0757L13 13.5Z" fill="#6A6A6A"/>
<path d="M18.5757 19.9243C18.8101 20.1586 19.1899 20.1586 19.4243 19.9243C19.6586 19.6899 19.6586 19.3101 19.4243 19.0757L19 19.5L18.5757 19.9243ZM13 13.5L12.5757 13.9243L18.5757 19.9243L19 19.5L19.4243 19.0757L13.4243 13.0757L13 13.5Z" fill="black" fill-opacity="0.2"/>
<circle cx="9.5" cy="9.5" r="5.5" stroke="#6A6A6A" stroke-width="1.2"/>
<circle cx="9.5" cy="9.5" r="5.5" stroke="black" stroke-opacity="0.2" stroke-width="1.2"/>
</svg>
