<svg width="14" height="15" viewBox="0 0 14 15" fill="none" xmlns="http://www.w3.org/2000/svg">
<mask id="path-1-inside-1_2481_9093" fill="white">
<path d="M14 6V15H8.61523V10.8623H5.38477V15H0V6L7 0L14 6Z"/>
</mask>
<path d="M14 6H15.2V5.44808L14.7809 5.08889L14 6ZM14 15V16.2H15.2V15H14ZM8.61523 15H7.41523V16.2H8.61523V15ZM8.61523 10.8623H9.81523V9.6623H8.61523V10.8623ZM5.38477 10.8623V9.6623H4.18477V10.8623H5.38477ZM5.38477 15V16.2H6.58477V15H5.38477ZM0 15H-1.2V16.2H0V15ZM0 6L-0.78095 5.08889L-1.2 5.44808V6H0ZM7 0L7.78095 -0.911108L7 -1.58049L6.21905 -0.911108L7 0ZM14 6H12.8V15H14H15.2V6H14ZM14 15V13.8H8.61523V15V16.2H14V15ZM8.61523 15H9.81523V10.8623H8.61523H7.41523V15H8.61523ZM8.61523 10.8623V9.6623H5.38477V10.8623V12.0623H8.61523V10.8623ZM5.38477 10.8623H4.18477V15H5.38477H6.58477V10.8623H5.38477ZM5.38477 15V13.8H0V15V16.2H5.38477V15ZM0 15H1.2V6H0H-1.2V15H0ZM0 6L0.78095 6.91111L7.78095 0.911108L7 0L6.21905 -0.911108L-0.78095 5.08889L0 6ZM7 0L6.21905 0.911108L13.2191 6.91111L14 6L14.7809 5.08889L7.78095 -0.911108L7 0Z" fill="#6A6A6A" mask="url(#path-1-inside-1_2481_9093)"/>
<path d="M14 6H15.2V5.44808L14.7809 5.08889L14 6ZM14 15V16.2H15.2V15H14ZM8.61523 15H7.41523V16.2H8.61523V15ZM8.61523 10.8623H9.81523V9.6623H8.61523V10.8623ZM5.38477 10.8623V9.6623H4.18477V10.8623H5.38477ZM5.38477 15V16.2H6.58477V15H5.38477ZM0 15H-1.2V16.2H0V15ZM0 6L-0.78095 5.08889L-1.2 5.44808V6H0ZM7 0L7.78095 -0.911108L7 -1.58049L6.21905 -0.911108L7 0ZM14 6H12.8V15H14H15.2V6H14ZM14 15V13.8H8.61523V15V16.2H14V15ZM8.61523 15H9.81523V10.8623H8.61523H7.41523V15H8.61523ZM8.61523 10.8623V9.6623H5.38477V10.8623V12.0623H8.61523V10.8623ZM5.38477 10.8623H4.18477V15H5.38477H6.58477V10.8623H5.38477ZM5.38477 15V13.8H0V15V16.2H5.38477V15ZM0 15H1.2V6H0H-1.2V15H0ZM0 6L0.78095 6.91111L7.78095 0.911108L7 0L6.21905 -0.911108L-0.78095 5.08889L0 6ZM7 0L6.21905 0.911108L13.2191 6.91111L14 6L14.7809 5.08889L7.78095 -0.911108L7 0Z" fill="black" fill-opacity="0.2" mask="url(#path-1-inside-1_2481_9093)"/>
</svg>
