<svg width="343" height="32" viewBox="0 0 343 32" fill="none" xmlns="http://www.w3.org/2000/svg">
<rect width="343" height="32" fill="white"/>
<line x1="13.5" y1="4.5" x2="329.5" y2="4.5" stroke="#DADADA"/>
<circle cx="91.5" cy="5" r="3" fill="#DADADA"/>
<circle cx="251.5" cy="5" r="3" fill="#DADADA"/>
<circle cx="329.5" cy="5" r="3" fill="#DADADA"/>
<circle cx="13.5" cy="5" r="3" fill="#DADADA"/>
<circle cx="171.5" cy="5" r="5" fill="black"/>
<path d="M3.53418 20.168C3.53955 21.4785 4.54932 22.6279 5.9082 23.1006L5.56445 23.6377C4.47949 23.2456 3.60938 22.4399 3.21191 21.4194C2.81445 22.542 1.896 23.4121 0.78418 23.8311L0.418945 23.3047C1.78857 22.7998 2.86816 21.5859 2.87891 20.1787V19.6309H0.644531V19.0615H5.73633V19.6309H3.53418V20.168ZM1.64355 25.1738V24.6045H7.79883V27.8379H7.12207V25.1738H1.64355ZM7.12207 24.0674V18.3633H7.79883V20.9307H9.25977V21.5215H7.79883V24.0674H7.12207ZM17.4397 18.3633V22.1875H19.0725V22.7568H17.4397V27.8486H16.763V18.3633H17.4397ZM10.5755 25.4531V19.2979H14.9905V19.8672H11.2522V24.8623H11.3059C13.116 24.8677 14.3352 24.7979 15.7747 24.5293L15.8714 25.1201C14.3728 25.394 13.1482 25.4478 11.3059 25.4531H10.5755Z" fill="black"/>
<path d="M165.631 18.1094V20.4434H166.783V21.0977H165.631V23.3145H164.86V18.1094H165.631ZM159.02 22.6406V18.8027H161.188V19.4277H159.752V22.001C160.201 21.9863 160.748 21.9424 161.344 21.8008L161.422 22.4551C160.602 22.6309 159.933 22.6357 159.401 22.6406H159.02ZM159.86 24.3398V23.7246H165.631V26.8105H164.86V24.3398H159.86ZM161.715 22.6406V18.8027H164.02V19.4277H162.447V22.001C163.141 21.9912 163.683 21.9473 164.322 21.8008L164.41 22.4453C163.624 22.6162 163.024 22.6357 162.145 22.6406H161.715ZM171.915 18.7051V22.416H167.901V18.7051H171.915ZM168.409 26.166C169.845 25.9414 171.119 25.1504 171.207 24.2031H168.751V23.5781H174.474V24.2031H172.008C172.091 25.1309 173.39 25.9414 174.806 26.166L174.522 26.7617C173.253 26.5518 172.105 25.9219 171.603 25.0527C171.114 25.9268 169.967 26.5469 168.702 26.752L168.409 26.166ZM168.653 21.791H171.173V19.3301H168.653V21.791ZM173.556 23.0703V18.1094H174.317V20.1992H175.626V20.8438H174.317V23.0703H173.556ZM183.092 18.1094V21.5469H184.547V22.1914H183.092V26.8105H182.33V18.1094H183.092ZM176.754 24.6328V18.959H180.806V19.5938H177.515V23.9883C179.088 23.9834 180.196 23.915 181.49 23.6758L181.588 24.3398C180.225 24.584 179.088 24.6328 177.437 24.6328H176.754Z" fill="black"/>
<path d="M331.683 19.373V20.5654C331.683 21.9673 331.683 23.2456 331.297 25.1309L330.62 25.0664C330.835 24.1211 330.931 23.2993 330.98 22.5312L325.098 22.8535L324.991 22.2842L331.007 22.0156C331.023 21.5215 331.028 21.0488 331.028 20.5654V19.9531H325.238V19.373H331.683ZM324.185 26.4414V25.8613H332.822V26.4414H324.185ZM341.206 18.3633V22.1875H342.839V22.7568H341.206V27.8486H340.529V18.3633H341.206ZM334.342 25.4531V19.2979H338.757V19.8672H335.019V24.8623H335.072C336.882 24.8677 338.102 24.7979 339.541 24.5293L339.638 25.1201C338.139 25.394 336.915 25.4478 335.072 25.4531H334.342Z" fill="black"/>
</svg>
