<svg width="102" height="22" viewBox="0 0 102 22" fill="none" xmlns="http://www.w3.org/2000/svg">
<path d="M11 3L12.7961 8.52786H18.6085L13.9062 11.9443L15.7023 17.4721L11 14.0557L6.29772 17.4721L8.09383 11.9443L3.39155 8.52786H9.20389L11 3Z" fill="black"/>
<path d="M31 3L32.7961 8.52786H38.6085L33.9062 11.9443L35.7023 17.4721L31 14.0557L26.2977 17.4721L28.0938 11.9443L23.3915 8.52786H29.2039L31 3Z" fill="black"/>
<path d="M51 3L52.7961 8.52786H58.6085L53.9062 11.9443L55.7023 17.4721L51 14.0557L46.2977 17.4721L48.0938 11.9443L43.3915 8.52786H49.2039L51 3Z" fill="black"/>
<path d="M71 3L72.7961 8.52786H78.6085L73.9062 11.9443L75.7023 17.4721L71 14.0557L66.2977 17.4721L68.0938 11.9443L63.3915 8.52786H69.2039L71 3Z" fill="black"/>
<path d="M91 3L92.7961 8.52786H98.6085L93.9062 11.9443L95.7023 17.4721L91 14.0557L86.2977 17.4721L88.0938 11.9443L83.3915 8.52786H89.2039L91 3Z" fill="black"/>
</svg>
