<svg width="12" height="12" viewBox="0 0 12 12" fill="none" xmlns="http://www.w3.org/2000/svg">
<path d="M0.559434 2.02877L0.944096 3.27478C1.52706 2.10059 2.4888 1.11359 3.75112 0.530374C6.69538 -0.829811 10.157 0.516459 11.483 3.537C12.8088 6.55781 11.4968 10.1093 8.55241 11.4696C5.62179 12.8234 2.17864 11.4964 0.839158 8.5053L1.10616 8.37872L1.37254 8.25501L1.37207 8.25394C2.57697 10.9447 5.67498 12.1382 8.31136 10.9203C10.9601 9.69663 12.1404 6.5018 10.9477 3.78431C9.75481 1.06709 6.64079 -0.144013 3.99217 1.07959C2.84892 1.60779 1.97966 2.50318 1.4562 3.56911L2.81913 3.12588L2.90811 3.41312L2.99633 3.70007L0.692091 4.4498L0 2.2111L0.559434 2.02877ZM5.90792 4.91146C6.55313 4.6135 7.31226 4.90833 7.60295 5.57015L7.65059 5.69587C7.856 6.32796 7.56528 7.02987 6.9604 7.30943L6.83839 7.35806C6.22216 7.56899 5.53812 7.27074 5.26565 6.64996C4.97531 5.98797 5.26276 5.20961 5.90792 4.91146ZM6.14897 5.46067C5.79946 5.62223 5.64376 6.04398 5.80097 6.40265C5.95842 6.76139 6.36967 6.92168 6.71935 6.76022C7.06894 6.59859 7.22509 6.17619 7.06764 5.81746C6.91008 5.45897 6.49854 5.29929 6.14897 5.46067Z" fill="black"/>
</svg>
