<svg width="16" height="15" viewBox="0 0 16 15" fill="none" xmlns="http://www.w3.org/2000/svg">
<path d="M1.62522 1.71532C0.258389 3.20228 0.258389 5.61312 1.62522 7.10008L7.60014 13.6001L13.575 7.10007C14.9418 5.61311 14.9418 3.20228 13.575 1.71532C12.2081 0.228358 9.99206 0.228358 8.62522 1.71532L7.60014 2.83058L6.57497 1.71532C5.20814 0.228358 2.99206 0.228358 1.62522 1.71532Z" stroke="#6A6A6A" stroke-width="1.2" stroke-linecap="round" stroke-linejoin="round"/>
<path d="M1.62522 1.71532C0.258389 3.20228 0.258389 5.61312 1.62522 7.10008L7.60014 13.6001L13.575 7.10007C14.9418 5.61311 14.9418 3.20228 13.575 1.71532C12.2081 0.228358 9.99206 0.228358 8.62522 1.71532L7.60014 2.83058L6.57497 1.71532C5.20814 0.228358 2.99206 0.228358 1.62522 1.71532Z" stroke="black" stroke-opacity="0.2" stroke-width="1.2" stroke-linecap="round" stroke-linejoin="round"/>
</svg>
